<svg width="244" height="252" viewBox="0 0 244 252" fill="none" xmlns="http://www.w3.org/2000/svg">
<g style="mix-blend-mode:color-dodge">
<path d="M123.106 0C152.647 1.30131e-05 179.469 11.6279 199.242 30.5527L239.93 27.3906C242.197 27.2143 243.828 29.5274 242.901 31.6045L225.721 70.0918C230.546 82.4685 233.195 95.9328 233.195 110.016C233.195 159.446 200.574 201.261 155.672 215.137L182.398 246.895C184.23 249.071 182.286 252.337 179.5 251.766L132.049 242.031C130.568 241.728 129.544 240.369 129.66 238.862L131.131 219.741C128.481 219.932 125.805 220.031 123.106 220.031C100.925 220.031 80.2759 213.474 62.993 202.195L10.5077 233.845C7.96015 235.381 4.97088 232.671 6.24984 229.985L25.8787 188.763L2.32992 183.35C-0.0839738 182.795 -0.823625 179.72 1.07406 178.128L24.3221 158.629C17.0847 143.97 13.0174 127.468 13.0174 110.016C13.0174 80.4659 24.6761 53.6382 43.6463 33.873L8.72348 20.2119C5.84167 19.0846 6.34659 14.8616 9.41293 14.4453L105.494 1.40137C111.229 0.479869 117.111 1.62554e-06 123.106 0ZM209.176 109.056C209.175 36.6991 131.592 8.79465 106.582 60.6738C94.9457 84.8111 79.6137 86.8428 64.118 86.8428C47.341 86.8428 37.037 75.002 37.037 109.056C37.037 156.537 75.3446 195.027 122.599 195.027C169.854 195.027 209.176 156.537 209.176 109.056ZM117.52 161.115C122.76 158.484 125.178 161.394 127.693 166.291C130.208 171.188 129.55 179.018 124.31 181.649C119.071 184.28 113.92 181.211 111.405 176.314C108.89 171.418 112.281 163.746 117.52 161.115ZM88.9549 140.451C95.3465 139.119 97.097 142.931 98.3748 148.902C99.6522 154.875 96.6682 163.092 90.2762 164.425C83.8846 165.757 79.245 160.996 77.9676 155.024C76.6898 149.052 82.5629 141.784 88.9549 140.451ZM56.6346 120.617C56.9961 113.892 65.3548 107.807 72.5545 108.193C79.7543 108.58 80.5205 113.137 80.159 119.862C79.7973 126.587 74.2454 134.5 67.0457 134.113C59.8462 133.727 56.2733 127.342 56.6346 120.617ZM150.629 56.0078C161.407 56.0079 170.144 64.7397 170.144 75.5107C170.144 86.2818 161.407 95.0136 150.629 95.0137C139.85 95.0137 131.113 86.2818 131.113 75.5107C131.113 64.7397 139.85 56.0078 150.629 56.0078Z" fill="white"/>
</g>
</svg>
